<svg class="svg-icon" style="width: 1em; height: 1em;vertical-align: middle;fill: currentColor;overflow: hidden;" viewBox="0 0 1024 1024" version="1.1" xmlns="http://www.w3.org/2000/svg"><path d="M501.4 433.2c-8.7 7.1-31.2 48.9-31 67.5 0 0.8 0.2 1.2 2 1.2 30.4-1 66.8-37.4 92.6-62.1 73.7-70.5 107.9-35.5 134.4 63 18.5 68.6 29.2 156.2 27.2 172.2-2.1 16.5-33.6 53.9-73.2 89.3l16.2 132.1H367.9c-72.3-89.6-44.7-190 31.9-260.3 6.2-5.7 12.5-11 19-15.9-43.9-29.1-46.5-92.9-8.4-128.4 19.7-18.3 32.4-65.4 70.9-88.2 19.3-11.6 37.3 15.5 20.1 29.6z m8-254.7c26.4 28 57.2 49 92.8 62.2l0.2-5.7c0-17.6-4.5-34.5-13.2-47.3-12-17.6-31.1-25.3-52.1-22.4-11.1 1.5-20.4 6.2-27.7 13.2z m89.3 86.3c-4.5 20.5-11.9 38.7-21.5 52.2-20.3 28.8-43.4 28.8-63.7 0-11.8-16.8-20.5-40.9-24.2-67.7-2.3-16.7-0.5-35.2 6.3-50.7 29.4 30.2 63.6 52.5 103.1 66.2z m69.5 92.6c-10.6-6.3-17.9-15.5-22.6-27.5-19.6-50 9.5-109.1-26.8-162.4-35.2-51.7-111.6-51.7-146.8 0-12.9 19-19.6 43-19.6 67.6 0 29.2 10.5 65 22.8 88-4.6 12-11.8 21.8-23 28.3-8.5 5-11.4 16-6.4 24.5s16 11.4 24.5 6.4c12-7 21.5-16.2 28.7-27.3 36.6 34 81.7 22.2 109.9-20.9 7 23.1 19.9 41.8 41 54.2 8.5 5 19.5 2.1 24.5-6.4 5.2-8.5 2.3-19.5-6.2-24.5z m-45 99.4c-3.4 14.8-3.9 36 0 63.6l17.4 124.8c0.8 5.9-1.4 11.6-5.4 15.5-20.9 21.2-41.5 40.2-63.3 58.5-21.8 18.2-45.1 36.1-71.6 55.2-26.4 19 0.2 61.3 25.7 43.7 48.7-33.6 85.9-64 112.9-89.1 35-32.5 51.3-52.8 52-58.3 1.7-13.7-8.7-93.8-26.2-158.5-6.2-23.2-13-43.7-19.6-57.1-10.5-21.3-16.7-21.3-21.9 1.7z" fill="#6DBCAB" /></svg>